<?xml version="1.0" standalone="no"?><svg xmlns="http://www.w3.org/2000/svg" viewBox="0 0 1440 320"><path fill="#5f9ea0" fill-opacity="1" d="M0,96L0,192L102.9,192L102.9,256L205.7,256L205.7,224L308.6,224L308.6,192L411.4,192L411.4,160L514.3,160L514.3,160L617.1,160L617.1,288L720,288L720,160L822.9,160L822.9,160L925.7,160L925.7,192L1028.6,192L1028.6,160L1131.4,160L1131.4,256L1234.3,256L1234.3,64L1337.1,64L1337.1,160L1440,160L1440,0L1337.1,0L1337.1,0L1234.3,0L1234.3,0L1131.4,0L1131.4,0L1028.6,0L1028.6,0L925.7,0L925.7,0L822.9,0L822.9,0L720,0L720,0L617.1,0L617.1,0L514.3,0L514.3,0L411.4,0L411.4,0L308.6,0L308.6,0L205.7,0L205.7,0L102.9,0L102.9,0L0,0L0,0Z"></path></svg>